<svg width="50px" height="40px" viewBox="5 3 50 52">
    <path
        d="M5 50 L 40 50 L 40 25 L 5 25 Z"
        stroke="white"
        stroke-width="3"
        fill="transparent"
    />
    <path
        d="M10 30 L 15 35 L 10 40"
        stroke="white"
        stroke-width="3"
        fill="transparent"
    />
    <path
        d="M15 40 L 25 40"
        stroke="white"
        stroke-width="3"
        fill="transparent"
    />
    <path
        d="M20 25 A 30 15 90 0 0 17.5 2.5 A 20 20 90 0 0 15 25"
        stroke="white"
        stroke-width="3"
        fill="transparent"
    />
    <path
        d="M25 25 A 30 20 90 0 1 25 5 "
        stroke="white"
        stroke-width="3"
        fill="transparent"
    />
    <path
        d="M 24 5 A 10 10 0 0 1 32.5 10 A 30 10 45 0 1 27.5 10"
        stroke="white"
        stroke-width="3"
        fill="transparent"
    />
    <path
        d="M 30 25 A 30 30 0 0 0 30 10"
        stroke="white"
        stroke-width="3"
        fill="transparent"
    />
</svg>
